<svg xmlns="http://www.w3.org/2000/svg" transform="translate(33,33)" viewBox="0 0 114 114"><g transform="translate(-96.46 -120.56)"><path fill="#F80" fill-rule="evenodd" d="m120.46 130.56-18 4v1h2v3h32v-3h2v-1zm20 28-4-4h-32l-4 4z"/><rect width="1.882" height="16" x="111.99" y="138.5" fill="#00f" rx="4.571" ry="5.821"/><rect width="1.882" height="16" x="115.75" y="138.5" fill="#e6e6e6" rx="4.571" ry="5.821"/><rect width="1.882" height="16" x="119.52" y="138.5" fill="#e6e6e6" rx="4.571" ry="5.821"/><rect width="1.882" height="16" x="123.28" y="138.5" fill="#e6e6e6" rx="4.571" ry="5.821"/><rect width="1.882" height="16" x="127.05" y="138.5" fill="red" rx="4.571" ry="5.821"/><rect width="1.882" height="16" x="130.81" y="138.5" fill="red" rx="4.571" ry="5.821"/><rect width="1.882" height="16" x="134.58" y="138.5" fill="red" rx="4.571" ry="5.821"/><rect width="1.882" height="16" x="108.22" y="138.5" fill="#00f" rx="4.571" ry="5.821"/><rect width="1.882" height="16" x="104.46" y="138.5" fill="#00f" rx="4.571" ry="5.821"/></g></svg>