<svg xmlns="http://www.w3.org/2000/svg" transform="translate(33,33)" viewBox="0 0 114 114"><path fill="#F80" fill-rule="evenodd" d="m128.46 126.56h10v10h-10z" transform="translate(-96.46 -120.56)"/><path fill="#F80" fill-rule="evenodd" d="m115.46-162.56h10v10h-10z" transform="matrix(1 0 0 -1 -96.46 -120.56)"/><path fill="#F80" fill-rule="evenodd" d="m102.46 126.56h10v10h-10z" transform="translate(-96.46 -120.56)"/><path fill="#747474" fill-rule="evenodd" d="m100.46 124.56v14h5.5v3h-5.5v6h18.5v3h-5.5v14h14v-14h-5.5v-3h18.5v-6h-5.5v-3h5.5v-14h-14v14h5.5v3h-23v-3h5.5v-14zm2 2h10v10h-10zm26 0h10v10h-10zm-13 26h10v10h-10z" transform="translate(-96.46 -120.56)"/></svg>