<svg xmlns="http://www.w3.org/2000/svg" transform="translate(33,33)" viewBox="0 0 114 114"><path fill="#F80" fill-rule="evenodd" d="m119.46 124.56a15 4 0 0 0-15 4v6a15 4 0 0 0 15 4 15 4 0 0 0 15-4v-6a15 4 0 0 0-15-4zm-15 14v6a15 4 0 0 0 8 3.536v-6a15 4 0 0 1-8-3.535zm0 10v6a15 4 0 0 0 8 3.536v-6a15 4 0 0 1-8-3.535z" transform="translate(-96.46 -120.56)"/><path fill="#747474" fill-rule="evenodd" d="M115.46 140.56v24h3v-3.5h4v3.5h14v-24h-14v3.5h-4v-3.5zm13 2h6v3h-3v13.5a3.5 3.5 0 0 1-3.5 3.5 3.5 3.5 0 0 1-3.5-3.5 3.5 3.5 0 0 1 3.5-3.5 3.5 3.5 0 0 1 .5.042V145.56zm-10 4.5h4v4h-4zm0 7h4v4h-4z" transform="translate(-96.46 -120.56)"/></svg>