<svg xmlns="http://www.w3.org/2000/svg" transform="translate(33,33)" viewBox="0 0 114 114"><g fill-rule="evenodd"><path fill="#F80" d="m390 1010.4h10v10h-10zm26 0h10v10h-10z" transform="translate(-384 -1004.4)"/><path fill="#F80" d="m403-1046.4h10v10h-10z" transform="matrix(1 0 0 -1 -384 -1004.4)"/><path fill="#747474" d="M388 1008.362v14h5.5v3H388v6h18.5v3H401v14h14v-14h-5.5v-3H428v-6h-5.5v-3h5.5v-14h-14v14h5.5v3h-23v-3h5.5v-14zm2 2h10v10h-10zm26 0h10v10h-10zm-13 26h10v10h-10z" transform="translate(-384 -1004.4)"/></g></svg>